<svg width="512" height="512" viewBox="0 0 512 512" xmlns="http://www.w3.org/2000/svg" role="img" aria-label="Priority Captain">
<rect width="512" height="512" fill="#221a13"/>
<g transform="translate(256,256) scale(3.4)" fill="none" stroke="#e7ad4c" stroke-linecap="round">
<circle r="30" stroke-width="5"/>
<circle r="21" stroke-width="2.4"/>
<path d="M8 0 L30 0 M5.66 5.66 L21.2 21.2 M0 8 L0 30 M-5.66 5.66 L-21.2 21.2 M-8 0 L-30 0 M-5.66 -5.66 L-21.2 -21.2 M0 -8 L0 -30 M5.66 -5.66 L21.2 -21.2" stroke-width="3.4"/>
<path d="M30 0 L38 0 M21.2 21.2 L26.9 26.9 M0 30 L0 38 M-21.2 21.2 L-26.9 26.9 M-30 0 L-38 0 M-21.2 -21.2 L-26.9 -26.9 M0 -30 L0 -38 M21.2 -21.2 L26.9 -26.9" stroke-width="4.2"/>
<g fill="#e7ad4c" stroke="none"><circle cx="40" cy="0" r="3"/><circle cx="28.3" cy="28.3" r="3"/><circle cx="0" cy="40" r="3"/><circle cx="-28.3" cy="28.3" r="3"/><circle cx="-40" cy="0" r="3"/><circle cx="-28.3" cy="-28.3" r="3"/><circle cx="0" cy="-40" r="3"/><circle cx="28.3" cy="-28.3" r="3"/></g>
<circle r="8" fill="#e7ad4c" stroke="none"/>
</g>
<circle cx="350" cy="350" r="66" fill="#3fae63"/>
<path d="M320 349 L343 372 L384 324" fill="none" stroke="#fdf7ec" stroke-width="15" stroke-linecap="round" stroke-linejoin="round"/>
</svg>
